<svg width="18" height="18" viewBox="0 0 18 18" fill="none" xmlns="http://www.w3.org/2000/svg">
<path d="M17.0683 1.76033L10.1933 16.7603C10.1357 16.886 10.0382 16.989 9.91586 17.0533C9.79355 17.1177 9.65337 17.1396 9.51725 17.1158C9.38112 17.092 9.25673 17.0237 9.16353 16.9217C9.07033 16.8197 9.01357 16.6896 9.00213 16.5519L8.42088 9.57896L1.44794 8.99771C1.31022 8.98627 1.18018 8.92951 1.07815 8.8363C0.976119 8.7431 0.907856 8.61871 0.884036 8.48258C0.860215 8.34646 0.88218 8.20628 0.946496 8.08397C1.01081 7.96166 1.11385 7.86411 1.2395 7.80658L16.2395 0.93158C16.3555 0.878438 16.4849 0.862048 16.6104 0.884614C16.736 0.907179 16.8516 0.967618 16.9418 1.05781C17.032 1.14801 17.0925 1.26365 17.115 1.38919C17.1376 1.51474 17.1212 1.64418 17.0681 1.76014L17.0683 1.76033Z" fill="#080809"/>
</svg>
